Coordinates
version=1
nRows=7
nColumns=40
inDegrees=yes

Units are S.I. units (second, meters, Newtons, ...)
If the header above contains a line with 'inDegrees', this indicates whether rotational values are in degrees (yes) or radians (no).

endheader
time	pelvis_tilt	pelvis_list	pelvis_rotation	pelvis_tx	pelvis_ty	pelvis_tz	hip_flexion_r	hip_adduction_r	hip_rotation_r	knee_angle_r	knee_angle_r_beta	ankle_angle_r	subtalar_angle_r	mtp_angle_r	hip_flexion_l	hip_adduction_l	hip_rotation_l	knee_angle_l	knee_angle_l_beta	ankle_angle_l	subtalar_angle_l	mtp_angle_l	lumbar_extension	lumbar_bending	lumbar_rotation	arm_flex_r	arm_add_r	arm_rot_r	elbow_flex_r	pro_sup_r	wrist_flex_r	wrist_dev_r	arm_flex_l	arm_add_l	arm_rot_l	elbow_flex_l	pro_sup_l	wrist_flex_l	wrist_dev_l
      1.40000000	      7.16043705	      3.66079098	     -0.09514177	     -0.33151311	      0.97913729	     -0.80159433	      2.38001852	      0.44496570	    -13.56877217	     18.36213345	      0.32047969	     -3.81626034	      0.00000000	      0.00000000	     32.16060430	     -3.44894626	     -0.96505450	     12.77831256	      0.22302363	    -14.79640994	      0.00000000	      0.00000000	    -14.49387036	     -1.73642575	     -1.02404571	     79.18446543	    -15.13033586	     44.74359419	     55.83167286	     86.76968141	      0.00000000	      0.00000000	     78.10708979	     -5.68774587	     39.06629399	     48.50512826	     84.46174764	      0.00000000	      0.00000000
      1.40500000	      7.19553617	      3.67160810	     -0.09399687	     -0.33168181	      0.97911148	     -0.80148000	      2.38564362	      0.40967274	    -13.74351413	     18.43250813	      0.32170796	     -3.80439292	      0.00000000	      0.00000000	     32.13359099	     -3.38356787	     -0.96750314	     12.73645456	      0.22229307	    -14.85876602	      0.00000000	      0.00000000	    -14.59171388	     -1.79230618	     -1.03596137	     79.22525144	    -15.17805837	     44.65209570	     55.95109629	     87.01148555	      0.00000000	      0.00000000	     78.18469750	     -5.61503784	     39.04448403	     48.45595350	     83.25702929	      0.00000000	      0.00000000
      1.41000000	      7.16369649	      3.73033842	     -0.17054252	     -0.33185226	      0.97892399	     -0.80134851	      2.50026098	      0.34420895	    -13.56880752	     18.57690148	      0.32422810	     -3.66646759	      0.00000000	      0.00000000	     32.19767686	     -3.30855938	     -1.09147256	     12.81367432	      0.22364081	    -14.80647527	      0.00000000	      0.00000000	    -14.59531761	     -1.89617187	     -1.02021125	     79.40791646	    -15.13554202	     44.82817923	     55.76903611	     87.12861384	      0.00000000	      0.00000000	     78.25074379	     -5.64554580	     39.17834123	     48.51875512	     80.66340513	      0.00000000	      0.00000000
      1.41500000	      7.16665499	      3.72670539	     -0.13462834	     -0.33205056	      0.97883891	     -0.80127407	      2.49756839	      0.35628657	    -13.65723181	     18.53829646	      0.32355431	     -3.82180721	      0.00000000	      0.00000000	     32.20968360	     -3.23162106	     -1.05825415	     12.78257978	      0.22309810	    -14.80556477	      0.00000000	      0.00000000	    -14.65684921	     -1.92600394	     -1.04592658	     79.50804798	    -15.20941984	     44.89927197	     55.86331674	     86.86271514	      0.00000000	      0.00000000	     78.31956579	     -5.52535691	     38.85752955	     48.33834434	     83.43341167	      0.00000000	      0.00000000
      1.42000000	      7.09492581	      3.76348575	     -0.26414021	     -0.33227074	      0.97856173	     -0.80097501	      2.66289500	      0.33505733	    -13.36484561	     18.66754510	      0.32581013	     -3.61725840	      0.00000000	      0.00000000	     32.31371991	     -3.22116398	     -1.25143835	     12.83429287	      0.22400067	    -14.87441521	      0.00000000	      0.00000000	    -14.62469933	     -2.03154431	     -0.98182543	     79.58946175	    -15.15018135	     44.87678931	     55.73250819	     87.15030159	      0.00000000	      0.00000000	     78.39467131	     -5.56979127	     39.04791697	     48.36009740	     82.05611741	      0.00000000	      0.00000000
      1.42500000	      7.10184407	      3.75273458	     -0.28747145	     -0.33248758	      0.97840224	     -0.80083122	      2.71969777	      0.34216580	    -13.40390109	     18.77470244	      0.32768037	     -3.60800688	      0.00000000	      0.00000000	     32.31769496	     -3.20073342	     -1.23578350	     12.82629359	      0.22386105	    -14.90514841	      0.00000000	      0.00000000	    -14.69724016	     -2.06531300	     -0.91795665	     79.73231983	    -15.28839414	     45.03928834	     55.86439270	     86.89050841	      0.00000000	      0.00000000	     78.46577036	     -5.44748923	     38.73385639	     48.31176233	     83.80890475	      0.00000000	      0.00000000
      1.43000000	      7.06490336	      3.76582584	     -0.31735769	     -0.33272750	      0.97814013	     -0.80063172	      2.85430483	      0.31611666	    -13.39558791	     18.93524531	      0.33048238	     -3.49200483	      0.00000000	      0.00000000	     32.39346313	     -3.16129902	     -1.35236826	     12.88438876	      0.22487501	    -14.89756714	      0.00000000	      0.00000000	    -14.71431378	     -2.12239522	     -0.95639367	     79.89499532	    -15.22892844	     45.17761964	     55.77615178	     86.86193956	      0.00000000	      0.00000000	     78.56019051	     -5.50911204	     38.78433480	     48.31821150	     84.07408688	      0.00000000	      0.00000000
